<mxfile host="app.diagrams.net" modified="2023-10-28T18:56:03.691Z" agent="Mozilla/5.0 (Windows NT 10.0; Win64; x64) AppleWebKit/537.36 (KHTML, like Gecko) Chrome/116.0.5845.931 YaBrowser/23.9.3.931 Yowser/2.5 Safari/537.36" etag="_G49Gqfe1yOkgtJvPGoZ" version="22.0.8" type="github">
  <diagram id="C5RBs43oDa-KdzZeNtuy" name="Page-1">
    <mxGraphModel dx="2240" dy="949" grid="1" gridSize="10" guides="1" tooltips="1" connect="1" arrows="1" fold="1" page="1" pageScale="1" pageWidth="827" pageHeight="1169" math="0" shadow="0">
      <root>
        <mxCell id="WIyWlLk6GJQsqaUBKTNV-0" />
        <mxCell id="WIyWlLk6GJQsqaUBKTNV-1" parent="WIyWlLk6GJQsqaUBKTNV-0" />
        <mxCell id="4Z3oDNLbAeB4EFGE16-2-8" style="edgeStyle=orthogonalEdgeStyle;rounded=0;orthogonalLoop=1;jettySize=auto;html=1;entryX=0.5;entryY=0;entryDx=0;entryDy=0;" edge="1" parent="WIyWlLk6GJQsqaUBKTNV-1" source="4Z3oDNLbAeB4EFGE16-2-0" target="4Z3oDNLbAeB4EFGE16-2-2">
          <mxGeometry relative="1" as="geometry" />
        </mxCell>
        <mxCell id="4Z3oDNLbAeB4EFGE16-2-0" value="Start" style="ellipse;whiteSpace=wrap;html=1;" vertex="1" parent="WIyWlLk6GJQsqaUBKTNV-1">
          <mxGeometry x="354" y="70" width="120" height="80" as="geometry" />
        </mxCell>
        <mxCell id="4Z3oDNLbAeB4EFGE16-2-1" value="Finish" style="ellipse;whiteSpace=wrap;html=1;" vertex="1" parent="WIyWlLk6GJQsqaUBKTNV-1">
          <mxGeometry x="354" y="920" width="120" height="80" as="geometry" />
        </mxCell>
        <mxCell id="4Z3oDNLbAeB4EFGE16-2-9" style="edgeStyle=orthogonalEdgeStyle;rounded=0;orthogonalLoop=1;jettySize=auto;html=1;entryX=0.5;entryY=0;entryDx=0;entryDy=0;" edge="1" parent="WIyWlLk6GJQsqaUBKTNV-1" source="4Z3oDNLbAeB4EFGE16-2-2" target="4Z3oDNLbAeB4EFGE16-2-3">
          <mxGeometry relative="1" as="geometry" />
        </mxCell>
        <mxCell id="4Z3oDNLbAeB4EFGE16-2-2" value="array[]&lt;br&gt;summ = 0&lt;br&gt;summ_average = 0&lt;br&gt;size" style="rounded=0;whiteSpace=wrap;html=1;" vertex="1" parent="WIyWlLk6GJQsqaUBKTNV-1">
          <mxGeometry x="354" y="200" width="120" height="60" as="geometry" />
        </mxCell>
        <mxCell id="4Z3oDNLbAeB4EFGE16-2-10" style="edgeStyle=orthogonalEdgeStyle;rounded=0;orthogonalLoop=1;jettySize=auto;html=1;entryX=0.5;entryY=0;entryDx=0;entryDy=0;" edge="1" parent="WIyWlLk6GJQsqaUBKTNV-1" source="4Z3oDNLbAeB4EFGE16-2-3" target="4Z3oDNLbAeB4EFGE16-2-6">
          <mxGeometry relative="1" as="geometry" />
        </mxCell>
        <mxCell id="4Z3oDNLbAeB4EFGE16-2-3" value="array[]" style="shape=parallelogram;perimeter=parallelogramPerimeter;whiteSpace=wrap;html=1;fixedSize=1;" vertex="1" parent="WIyWlLk6GJQsqaUBKTNV-1">
          <mxGeometry x="354" y="290" width="120" height="60" as="geometry" />
        </mxCell>
        <mxCell id="4Z3oDNLbAeB4EFGE16-2-12" style="edgeStyle=orthogonalEdgeStyle;rounded=0;orthogonalLoop=1;jettySize=auto;html=1;entryX=0.5;entryY=0;entryDx=0;entryDy=0;" edge="1" parent="WIyWlLk6GJQsqaUBKTNV-1" source="4Z3oDNLbAeB4EFGE16-2-5" target="4Z3oDNLbAeB4EFGE16-2-7">
          <mxGeometry relative="1" as="geometry" />
        </mxCell>
        <mxCell id="4Z3oDNLbAeB4EFGE16-2-16" style="edgeStyle=orthogonalEdgeStyle;rounded=0;orthogonalLoop=1;jettySize=auto;html=1;entryX=0;entryY=0.5;entryDx=0;entryDy=0;exitX=0;exitY=0.5;exitDx=0;exitDy=0;" edge="1" parent="WIyWlLk6GJQsqaUBKTNV-1" source="4Z3oDNLbAeB4EFGE16-2-5" target="4Z3oDNLbAeB4EFGE16-2-15">
          <mxGeometry relative="1" as="geometry">
            <Array as="points">
              <mxPoint x="160" y="530" />
              <mxPoint x="160" y="740" />
            </Array>
          </mxGeometry>
        </mxCell>
        <mxCell id="4Z3oDNLbAeB4EFGE16-2-5" value="for (i = 0; i &amp;lt; size; I ++)" style="shape=hexagon;perimeter=hexagonPerimeter2;whiteSpace=wrap;html=1;fixedSize=1;" vertex="1" parent="WIyWlLk6GJQsqaUBKTNV-1">
          <mxGeometry x="261" y="490" width="306" height="80" as="geometry" />
        </mxCell>
        <mxCell id="4Z3oDNLbAeB4EFGE16-2-11" style="edgeStyle=orthogonalEdgeStyle;rounded=0;orthogonalLoop=1;jettySize=auto;html=1;entryX=0.5;entryY=0;entryDx=0;entryDy=0;" edge="1" parent="WIyWlLk6GJQsqaUBKTNV-1" source="4Z3oDNLbAeB4EFGE16-2-6" target="4Z3oDNLbAeB4EFGE16-2-5">
          <mxGeometry relative="1" as="geometry" />
        </mxCell>
        <mxCell id="4Z3oDNLbAeB4EFGE16-2-6" value="size = length(array)" style="rounded=0;whiteSpace=wrap;html=1;" vertex="1" parent="WIyWlLk6GJQsqaUBKTNV-1">
          <mxGeometry x="354" y="390" width="120" height="60" as="geometry" />
        </mxCell>
        <mxCell id="4Z3oDNLbAeB4EFGE16-2-13" style="edgeStyle=orthogonalEdgeStyle;rounded=0;orthogonalLoop=1;jettySize=auto;html=1;entryX=1;entryY=0.5;entryDx=0;entryDy=0;" edge="1" parent="WIyWlLk6GJQsqaUBKTNV-1" source="4Z3oDNLbAeB4EFGE16-2-7" target="4Z3oDNLbAeB4EFGE16-2-5">
          <mxGeometry relative="1" as="geometry">
            <Array as="points">
              <mxPoint x="620" y="650" />
              <mxPoint x="620" y="530" />
            </Array>
          </mxGeometry>
        </mxCell>
        <mxCell id="4Z3oDNLbAeB4EFGE16-2-7" value="summ = summ + array[i]" style="rounded=0;whiteSpace=wrap;html=1;" vertex="1" parent="WIyWlLk6GJQsqaUBKTNV-1">
          <mxGeometry x="341" y="620" width="146" height="60" as="geometry" />
        </mxCell>
        <mxCell id="4Z3oDNLbAeB4EFGE16-2-19" style="edgeStyle=orthogonalEdgeStyle;rounded=0;orthogonalLoop=1;jettySize=auto;html=1;entryX=0.5;entryY=0;entryDx=0;entryDy=0;" edge="1" parent="WIyWlLk6GJQsqaUBKTNV-1" source="4Z3oDNLbAeB4EFGE16-2-15" target="4Z3oDNLbAeB4EFGE16-2-18">
          <mxGeometry relative="1" as="geometry" />
        </mxCell>
        <mxCell id="4Z3oDNLbAeB4EFGE16-2-15" value="summ_average = summ / size" style="rounded=0;whiteSpace=wrap;html=1;" vertex="1" parent="WIyWlLk6GJQsqaUBKTNV-1">
          <mxGeometry x="314.5" y="710" width="199" height="60" as="geometry" />
        </mxCell>
        <mxCell id="4Z3oDNLbAeB4EFGE16-2-20" style="edgeStyle=orthogonalEdgeStyle;rounded=0;orthogonalLoop=1;jettySize=auto;html=1;entryX=0.5;entryY=0;entryDx=0;entryDy=0;" edge="1" parent="WIyWlLk6GJQsqaUBKTNV-1" source="4Z3oDNLbAeB4EFGE16-2-18" target="4Z3oDNLbAeB4EFGE16-2-1">
          <mxGeometry relative="1" as="geometry" />
        </mxCell>
        <mxCell id="4Z3oDNLbAeB4EFGE16-2-18" value="summ_average" style="shape=document;whiteSpace=wrap;html=1;boundedLbl=1;" vertex="1" parent="WIyWlLk6GJQsqaUBKTNV-1">
          <mxGeometry x="354" y="800" width="120" height="80" as="geometry" />
        </mxCell>
      </root>
    </mxGraphModel>
  </diagram>
</mxfile>
